<svg xmlns="http://www.w3.org/2000/svg" width="500" height="289.47" viewBox="0 0 500 289.47"><path d="M750,500A144.82,144.82,0,0,1,552.17,634.69a144.8,144.8,0,0,0,0-269.38A144.82,144.82,0,0,1,750,500Z" transform="translate(-250 -355.26)" fill="#ef7f56"/><path d="M446.91,635.05a144.74,144.74,0,1,1,0-270.1,144.8,144.8,0,0,0,0,270.1Z" transform="translate(-250 -355.26)" fill="#795ea8"/><path d="M643.81,500a144.78,144.78,0,0,1-91.64,134.69A145.06,145.06,0,0,1,500,599.34a144.75,144.75,0,0,0,0-198.68,145.06,145.06,0,0,1,52.17-35.35A144.78,144.78,0,0,1,643.81,500Z" transform="translate(-250 -355.26)" fill="#efb53d"/><ellipse cx="250" cy="144.74" rx="39.47" ry="99.34" fill="#fae7e7"/><path d="M460.53,500A144.2,144.2,0,0,0,500,599.34a145.12,145.12,0,0,1-53.09,35.71,144.8,144.8,0,0,1,0-270.1A145.12,145.12,0,0,1,500,400.66,144.2,144.2,0,0,0,460.53,500Z" transform="translate(-250 -355.26)" fill="#7d9dd2"/><path d="M552.17,634.69a145.27,145.27,0,0,1-105.26.36A145.12,145.12,0,0,0,500,599.34,145.06,145.06,0,0,0,552.17,634.69Z" transform="translate(-250 -355.26)" fill="#7ab041"/><path d="M552.17,365.31A145.06,145.06,0,0,0,500,400.66,145.12,145.12,0,0,0,446.91,365a145.27,145.27,0,0,1,105.26.36Z" transform="translate(-250 -355.26)" fill="#7ab041"/><path d="M414.81,502.34a18.33,18.33,0,0,1,4.94,6.23,18.37,18.37,0,0,1-.84,17.53,18.3,18.3,0,0,1-7.76,6.74,27.33,27.33,0,0,1-12,2.46H373.45v-70h24.7a27.6,27.6,0,0,1,12,2.36A16.38,16.38,0,0,1,420,483.05a15.76,15.76,0,0,1-3.31,10.3,18.53,18.53,0,0,1-8.74,5.88A14.5,14.5,0,0,1,414.81,502.34Zm-32.37-6.83h15.12q6.33,0,9.79-3a11.81,11.81,0,0,0,0-16.68q-3.47-3-10-3H382.44Zm26.39,29a11.17,11.17,0,0,0,3.75-8.95,11.46,11.46,0,0,0-3.95-9.19q-4-3.36-10.57-3.36H382.44v24.71h15.91Q405.07,527.76,408.83,524.55Z" transform="translate(-250 -355.26)"/><path d="M474.74,519.72h-30l-5.53,15.58h-9.49l24.9-69.63H465l24.8,69.63h-9.48Zm-2.57-7.43-12.45-35.37-12.45,35.37Z" transform="translate(-250 -355.26)"/><path d="M535.42,535.3,520.2,508h-6.52V535.3H499.84V465.17h25.9A29.84,29.84,0,0,1,539.38,468a19.85,19.85,0,0,1,8.45,7.74,21.45,21.45,0,0,1,2.81,10.9,21.16,21.16,0,0,1-3.95,12.51q-4,5.58-11.76,7.68l16.5,28.44Zm-21.74-37.88h11.56q5.64,0,8.4-2.76c1.85-1.84,2.77-4.41,2.77-7.69s-.92-5.71-2.77-7.48-4.64-2.67-8.4-2.67H513.68Z" transform="translate(-250 -355.26)"/><path d="M606.43,469.49a30.58,30.58,0,0,1,12.75,12.31,37.19,37.19,0,0,1,4.49,18.53,36.66,36.66,0,0,1-4.49,18.44A30.77,30.77,0,0,1,606.43,531a40.66,40.66,0,0,1-19.13,4.32H563.19V465.17H587.3A40.66,40.66,0,0,1,606.43,469.49Zm-2.82,47.82q5.92-6,5.93-17t-5.93-17.13q-5.93-6.18-16.8-6.18H577v46.32h9.78Q597.68,523.34,603.61,517.31Z" transform="translate(-250 -355.26)"/></svg>