<?xml version="1.0" encoding="iso-8859-1"?>
<!-- Uploaded to: SVG Repo, www.svgrepo.com, Generator: SVG Repo Mixer Tools -->
<svg version="1.1" id="Layer_1" xmlns="http://www.w3.org/2000/svg" xmlns:xlink="http://www.w3.org/1999/xlink" 
	 viewBox="0 0 508 508" xml:space="preserve">
<g>
	<path style="fill:#AEB1B4;" d="M413.2,154c-0.8,0-0.4,0-1.2,0h-11.6v32h12v-32C412,154,413.2,154,413.2,154z"/>
	<path style="fill:#AEB1B4;" d="M96,154v32h12v-32h-4c-2,0-5.2-0.4-7.2-0.8C96.8,153.6,96,153.6,96,154z"/>
</g>
<g>
	<path style="fill:#E8E3E3;" d="M312,363.6V394h12v-28.8c0,0.4-2.8,0.4-4,0.4C317.2,365.6,316,364.8,312,363.6z"/>
	<path style="fill:#E8E3E3;" d="M312,314v22.4c4-1.6,5.2-2.4,8-2.4c1.2,0,4,0.4,4,0.4V314c0,0,1.2,0,1.2-0.4c-1.2,0-1.6,0.4-3.2,0.4
		H312z"/>
	<path style="fill:#E8E3E3;" d="M188,336.8c4-1.6,5.2-2.4,8.4-2.4c1.2,0,3.6,0,3.6,0.4V314h-1.6c-2.8,0-6.4-0.4-10.4-1.2V336.8z"/>
	<path style="fill:#E8E3E3;" d="M192,246L192,246c4,0,2.4,0,2.4,0H228c1.2,0,0,0.8,0,2v18h52v-16v-2c0-1.2,2.8-2,4-2h32v-63.2
		l-35.2,8.4c-6.4,1.6-14.4,2.4-23.2,2.4s-17.2-0.8-23.6-2.4l-41.2-9.2H192V246z"/>
	<path style="fill:#E8E3E3;" d="M188,363.2V394h12v-28.8c0,0.4-2.4,0.4-3.6,0.4C193.2,365.6,192,364.8,188,363.2z"/>
	<path style="fill:#E8E3E3;" d="M380,102L380,102L380,102v40c0,2.8,1.6,5.6,0.8,8h30.8c13.2,0,24-10.8,24-24
		c0-12.4-9.2-22.8-21.2-24c-0.8,0-1.6,0-2.4,0H380z"/>
</g>
<path style="fill:#AEB1B4;" d="M200,360C200,360,200.4,360,200,360c3.6-2,6-5.6,6-10s-2.4-8-6-10l0,0c-0.8,0-1.2-0.4-1.6-0.8
	c-1.2-0.4-2.8-0.8-4-0.8c-6.4,0-11.6,5.2-11.6,11.6s5.2,11.6,11.6,11.6c1.2,0,2.8-0.4,4-0.8C198.8,360.4,199.2,360,200,360z"/>
<path style="fill:#E8E3E3;" d="M128,102h2h-26c-0.8,0-1.6,0-2.4,0c-12,1.2-21.2,11.6-21.2,24c0,13.2,10.8,24,24,24h27.2
	c-0.8-2.8-3.2-5.6-3.2-8v-40H128z"/>
<path style="fill:#FF9999;" d="M376.4,150.8c-0.4,0.4-0.4,0.8-0.4,1.2C376,151.6,376.4,151.2,376.4,150.8z"/>
<path style="fill:#DF5C4E;" d="M358,82H158.4c-10.4,0-21.6,6-24,16c-0.4,1.2-1.6,2.4-1.6,4h-1.2v39.6c0,12,11.6,24.8,24,27.6
	l78.8,18c6,1.6,14.4,2,23.2,2s16.8-0.8,23.2-2.4l76.4-18c8.4-2,15.6-8.8,18.8-17.6c0-0.4-0.8-0.8-0.4-1.2c0.8-2.8,0.4-6,0.4-8.8V102
	C376,90,370,82,358,82z M258,164.8c-16.4,0-30-13.6-30-30s13.6-30,30-30s30,13.6,30,30C288,151.2,274.8,164.8,258,164.8z"/>
<g>
	<path style="fill:#E8E3E3;" d="M274,6h-32c-22,0-42.4,16-42.4,36v36h108V42C308,21.2,294.8,6,274,6z"/>
	<path style="fill:#E8E3E3;" d="M144,434v52h100v-52c0-21.2-12.4-36-33.6-36H182C160,398,144,414,144,434z"/>
</g>
<g>
	<path style="fill:#DF5C4E;" d="M228,250h-33.6c-1.2,0-2,0-3.2,0c-14.8,1.6-26.8,14.4-26.8,30c0,12.8,8,23.6,19.2,28l0,0
		c0.4,0,1.2,0.4,1.6,0.8c2.8,0.8,5.6,1.2,8.8,1.2h33.6v-16v-2v-22v-2v-18H228z"/>
	<path style="fill:#DF5C4E;" d="M284,292v18h38c16.4,0,29.6-13.6,29.6-30c0-15.6-11.6-28.4-26.8-30c-1.2,0-2,0-3.2,0h-38v18v24H284z
		"/>
</g>
<rect x="232" y="270" style="fill:#AEB1B4;" width="48" height="20"/>
<polygon style="fill:#FFC52F;" points="248,502 248,486 242,486 140,486 140,502 "/>
<path style="fill:#AEB1B4;" d="M324,360L324,360c3.6-2,5.6-5.6,5.6-10s-2.4-8-6-10c-0.4,0-1.2-0.4-1.6-0.8c-1.2-0.4-2.8-0.8-4.4-0.8
	c-6.4,0-11.6,5.2-11.6,11.6s5.2,11.6,11.6,11.6c1.6,0,3.2-0.4,4.4-0.8C322.8,360.4,323.2,360,324,360z"/>
<path style="fill:#E8E3E3;" d="M268,434v52h100v-52c0-20.8-13.2-36-34-36h-28.4C284,398,268,414,268,434z"/>
<polygon style="fill:#FFC52F;" points="372,502 372,486 366,486 264,486 264,502 "/>
<path style="fill:#E8E3E3;" d="M68,210v28h68v-28c0-12-6-20-18-20H90C78.4,190,68,197.6,68,210z"/>
<path style="fill:#AEB1B4;" d="M68,270h68c0-2.8,0-5.2,0-8v-24H68V270z"/>
<g>
	<path style="fill:#FFC52F;" d="M68,286h68c0-2.8,0-7.2,0-12H68V286z"/>
	<path style="fill:#FFC52F;" d="M372,286h68c0-2.8,0-7.2,0-12h-68V286z"/>
</g>
<path style="fill:#E8E3E3;" d="M372,210v28h68v-28c0-12-6-20-18.4-20h-28C382,190,372,197.6,372,210z"/>
<path style="fill:#AEB1B4;" d="M372,270h68c0-2.8,0-5.2,0-8v-24h-68V270z"/>
<path style="fill:#FFC52F;" d="M258,160.8c14.4,0,26-11.6,26-26s-11.6-26-26-26s-26,11.6-26,26C232,149.2,244,160.8,258,160.8z"/>
<path d="M194.4,367.6c-9.6,0-17.6-8-17.6-17.6s8-17.6,17.6-17.6s17.6,8,17.6,17.6S204,367.6,194.4,367.6z M194.4,340.4
	c-5.2,0-9.6,4.4-9.6,9.6s4.4,9.6,9.6,9.6c5.2,0,9.6-4.4,9.6-9.6S199.6,340.4,194.4,340.4z"/>
<path d="M257.6,195.6c-8.8,0-17.2-0.8-24-2.4l-79.2-18c-15.6-3.6-28.4-18.8-28.4-33.2v-40c0-15.6,16.8-26,32.4-26H358
	c14.8,0,24,10,24,26v39.6c0,15.6-10.4,30-24.4,33.2l-75.6,18C274.8,194.8,266.4,195.6,257.6,195.6z M158.4,84
	c-11.6,0-24.4,7.6-24.4,18v39.6c0,10.8,10.8,22.8,22.4,25.6l79.2,18c12.4,2.8,32.4,2.8,44.4,0l75.6-18c10.4-2.4,18.4-13.6,18.4-25.6
	l0,0V102c0-6.8-2-18-16-18H158.4z"/>
<path d="M310,82c-2.4,0-4-1.6-4-4V42c0-20.4-12.8-34-32-34h-32c-19.2,0-40.4,14-40.4,34v36c0,2.4-1.6,4-4,4s-4-1.6-4-4V42
	c0-25.2,24.8-42,48.4-42h32c23.6,0,40,17.2,40,42v36C314,80.4,312.4,82,310,82z"/>
<path d="M246,486c-2.4,0-4-1.6-4-4v-48c0-20.8-12.4-34-31.6-34H182c-20.4,0-36,14.8-36,34v48c0,2.4-1.6,4-4,4s-4-1.6-4-4v-48
	c0-23.6,19.2-42,44-42h28.4c23.6,0,39.6,16.8,39.6,42v48C250,484.4,248.4,486,246,486z"/>
<path d="M190,250c-2.4,0-4-1.6-4-4v-64c0-2.4,1.6-4,4-4s4,1.6,4,4v64C194,248.4,192.4,250,190,250z"/>
<path d="M318,250c-2.4,0-4-1.6-4-4v-64c0-2.4,1.6-4,4-4s4,1.6,4,4v64C322,248.4,320.4,250,318,250z"/>
<path d="M230,316h-35.6c-19.6,0-35.6-16-35.6-36s16-36,35.6-36H230c2.4,0,4,1.6,4,4v64C234,314.4,232.4,316,230,316z M194.4,252
	c-15.2,0-27.6,12.4-27.6,28s12.4,28,27.6,28H226v-56H194.4z"/>
<path d="M132,156h-28c-16.4,0-30-13.6-30-30s13.2-30,30-30h24c2.4,0,4,1.6,4,4s-1.6,4-4,4h-24c-12,0-22,10-22,22s9.6,22,22,22h28
	c2.4,0,4,1.6,4,4S134.4,156,132,156z"/>
<path d="M322,316h-40c-2.4,0-4-1.6-4-4v-64c0-2.4,1.6-4,4-4h40c19.6,0,35.6,16,35.6,36S341.6,316,322,316z M286,308h36
	c15.2,0,27.6-12.4,27.6-28s-12.4-28-27.6-28h-36V308z"/>
<path d="M282,296h-52c-2.4,0-4-1.6-4-4v-24c0-2.4,1.6-4,4-4h52c2.4,0,4,1.6,4,4v24C286,294.4,284.4,296,282,296z M234,288h44v-16
	h-44V288z"/>
<path d="M202,398c-2.4,0-4-1.6-4-4v-32c0-2.4,1.6-4,4-4s4,1.6,4,4v32C206,396.4,204.4,398,202,398z"/>
<path d="M186,398c-2.4,0-4-1.6-4-4v-32c0-2.4,1.6-4,4-4s4,1.6,4,4v32C190,396.4,188.4,398,186,398z"/>
<path d="M202,342c-2.4,0-4-1.6-4-4v-24c0-2.4,1.6-4,4-4s4,1.6,4,4v24C206,340.4,204.4,342,202,342z"/>
<path d="M186,342c-2.4,0-4-1.6-4-4v-24c0-2.4,1.6-4,4-4s4,1.6,4,4v24C190,340.4,188.4,342,186,342z"/>
<path d="M110,190c-2.4,0-4-1.6-4-4v-32c0-2.4,1.6-4,4-4s4,1.6,4,4v32C114,188.4,112.4,190,110,190z"/>
<path d="M94,190c-2.4,0-4-1.6-4-4v-32c0-2.4,1.6-4,4-4s4,1.6,4,4v32C98,188.4,96.4,190,94,190z"/>
<path d="M250,508H138c-2.4,0-4-1.6-4-4v-20c0-2.4,1.6-4,4-4h70c2.4,0,4,1.6,4,4s-1.6,4-4,4h-66v12h104v-12h-6c-2.4,0-4-1.6-4-4
	s1.6-4,4-4h10c2.4,0,4,1.6,4,4v20C254,506.4,252.4,508,250,508z"/>
<path d="M318,367.6c-9.6,0-17.6-8-17.6-17.6s8-17.6,17.6-17.6s17.6,8,17.6,17.6C335.6,360,327.6,367.6,318,367.6z M318,340.4
	c-5.2,0-9.6,4.4-9.6,9.6s4.4,9.6,9.6,9.6s9.6-4.4,9.6-9.6S323.2,340.4,318,340.4z"/>
<path d="M370,486c-2.4,0-4-1.6-4-4v-48c0-20.4-12.8-34-32-34h-28.4c-20.4,0-36,14.8-36,34v48c0,2.4-1.6,4-4,4s-4-1.6-4-4v-48
	c0-23.6,19.2-42,44-42H334c23.6,0,40,17.2,40,42v48C374,484.4,372.4,486,370,486z"/>
<path d="M326,398c-2.4,0-4-1.6-4-4v-32c0-2.4,1.6-4,4-4s4,1.6,4,4v32C330,396.4,328.4,398,326,398z"/>
<path d="M310,398c-2.4,0-4-1.6-4-4v-32c0-2.4,1.6-4,4-4s4,1.6,4,4v32C314,396.4,312.4,398,310,398z"/>
<path d="M326,342c-2.4,0-4-1.6-4-4v-24c0-2.4,1.6-4,4-4s4,1.6,4,4v24C330,340.4,328.4,342,326,342z"/>
<path d="M310,342c-2.4,0-4-1.6-4-4v-24c0-2.4,1.6-4,4-4s4,1.6,4,4v24C314,340.4,312.4,342,310,342z"/>
<path d="M374,508H262c-2.4,0-4-1.6-4-4v-20c0-2.4,1.6-4,4-4h70c2.4,0,4,1.6,4,4s-1.6,4-4,4h-66v12h104v-12h-6c-2.4,0-4-1.6-4-4
	s1.6-4,4-4h10c2.4,0,4,1.6,4,4v20C378,506.4,376.4,508,374,508z"/>
<path d="M138,292H66c-2.4,0-4-1.6-4-4v-78c0-14.8,12-26,28-26h28c14.8,0,24,10,24,26v78C142,290.4,140.4,292,138,292z M70,284h64
	v-74c0-6.8-2-18-16-18H90c-11.6,0-20,7.6-20,18V284z"/>
<path d="M136,240h-4c-2.4,0-4-1.6-4-4s1.6-4,4-4h4c2.4,0,4,1.6,4,4S138.4,240,136,240z"/>
<path d="M108,240H68c-2.4,0-4-1.6-4-4s1.6-4,4-4h40c2.4,0,4,1.6,4,4S110.4,240,108,240z"/>
<path d="M136,276H68c-2.4,0-4-1.6-4-4s1.6-4,4-4h68c2.4,0,4,1.6,4,4S138.4,276,136,276z"/>
<path d="M411.6,156H380c-2.4,0-4-1.6-4-4s1.6-4,4-4h31.6c12,0,22-10,22-22s-9.6-22-22-22H380c-2.4,0-4-1.6-4-4s1.6-4,4-4h31.6
	c16.4,0,30,13.6,30,30S428,156,411.6,156z"/>
<path d="M398,190c-2.4,0-4-1.6-4-4v-32c0-2.4,1.6-4,4-4s4,1.6,4,4v32C402,188.4,400.4,190,398,190z"/>
<path d="M414,190c-2.4,0-4-1.6-4-4v-32c0-2.4,1.6-4,4-4s4,1.6,4,4v32C418,188.4,416.4,190,414,190z"/>
<path d="M442,292h-72c-2.4,0-4-1.6-4-4v-78c0-15.2,11.6-26,27.6-26h28c15.2,0,24.4,10,24.4,26v78C446,290.4,444.4,292,442,292z
	 M374,284h64v-74c0-6.8-2-18-16.4-18h-28c-11.6,0-19.6,7.6-19.6,18V284z"/>
<path d="M380,240h-8c-2.4,0-4-1.6-4-4s1.6-4,4-4h8c2.4,0,4,1.6,4,4S382.4,240,380,240z"/>
<path d="M440,240h-36c-2.4,0-4-1.6-4-4s1.6-4,4-4h36c2.4,0,4,1.6,4,4S442.4,240,440,240z"/>
<path d="M440,276h-68c-2.4,0-4-1.6-4-4s1.6-4,4-4h68c2.4,0,4,1.6,4,4S442.4,276,440,276z"/>
<path d="M258,166.8c-17.6,0-32-14.4-32-32s14.4-32,32-32s32,14.4,32,32S276,166.8,258,166.8z M258,110.8c-13.2,0-24,10.8-24,24
	s10.8,24,24,24s24-10.8,24-24S271.2,110.8,258,110.8z"/>
<path d="M288,48h-68c-2.4,0-4-1.6-4-4s1.6-4,4-4h68c2.4,0,4,1.6,4,4S290.4,48,288,48z"/>
</svg>